# xmcd CD database file
#
# Track frame offsets:
#	150
#	25082
#	42264
#	68516
#	110897
#	138056
#	167979
#	194159
#	219140
#	262126
#
# Disc length: 3904 seconds
#
# Revision: 0
# Processed by: cddbd v1.5.1PL0 Copyright (c) Steve Scherf et al.
# Submitted via: CDex 1.51
#
DISCID=920f3e0a
DTITLE=Tsuyoshi Yamamoto Trio - Autumn In Seattle
DYEAR=2003
DGENRE=Jazz
TTITLE0=The Way We Were
TTITLE1=Raindorops Keep Falling On My Head
TTITLE2=Autumn In Seattle
TTITLE3=Misty
TTITLE4=Love Is A Many Splendored Thing
TTITLE5=Theme From Spartacus
TTITLE6=No Problem
TTITLE7=As Time Goes By
TTITLE8=Sound Of Music Medley
TTITLE9=A Time For Us
EXTD=YEAR: 2003
EXTT0=
EXTT1=
EXTT2=
EXTT3=
EXTT4=
EXTT5=
EXTT6=
EXTT7=
EXTT8=
EXTT9=
PLAYORDER=
